{
  "asset": {
    "extras": {
      "author": "Alexander Kurmanin (https://sketchfab.com/kurmanin)",
      "license": "CC-BY-4.0 (http://creativecommons.org/licenses/by/4.0/)",
      "source": "https://sketchfab.com/3d-models/female-sweatshirt-for-metahuman-3b58e05f01e1476a9205dcd4f0fd31fa",
      "title": "Female sweatshirt for Metahuman"
    },
    "generator": "Shirt",
    "version": "2.0"
  },
  "buffers": [
    {
      "uri": "Shirt.bin",
      "byteLength": 162696
    }
  ],
  "bufferViews": [
    {
      "buffer": 0,
      "byteOffset": 0,
      "byteLength": 57408,
      "byteStride": 24,
      "target": 34962
    },
    {
      "buffer": 0,
      "byteOffset": 57408,
      "byteLength": 38272,
      "byteStride": 16,
      "target": 34962
    },
    {
      "buffer": 0,
      "byteOffset": 95680,
      "byteLength": 19136,
      "byteStride": 8,
      "target": 34962
    },
    {
      "buffer": 0,
      "byteOffset": 114816,
      "byteLength": 47880,
      "target": 34963
    }
  ],
  "accessors": [
    {
      "bufferView": 0,
      "byteOffset": 0,
      "componentType": 5126,
      "normalized": false,
      "count": 2392,
      "min": [
        -0.9968249201774597,
        -0.9998714327812195,
        -0.9999350309371948
      ],
      "max": [
        0.9996278882026672,
        0.9763329029083252,
        0.9997957348823547
      ],
      "type": "VEC3"
    },
    {
      "bufferView": 0,
      "byteOffset": 12,
      "componentType": 5126,
      "normalized": false,
      "count": 2392,
      "min": [
        -0.42086347937583923,
        0.8493077158927917,
        -0.12617672979831696
      ],
      "max": [
        0.42095184326171875,
        1.3565986156463623,
        0.1476791650056839
      ],
      "type": "VEC3"
    },
    {
      "bufferView": 1,
      "byteOffset": 0,
      "componentType": 5126,
      "normalized": false,
      "count": 2392,
      "min": [
        -0.99989253282547,
        -0.9980349540710449,
        -0.9998144507408142,
        -1
      ],
      "max": [
        0.9999973177909851,
        0.9699671268463135,
        0.9998605251312256,
        1
      ],
      "type": "VEC4"
    },
    {
      "bufferView": 2,
      "byteOffset": 0,
      "componentType": 5126,
      "normalized": false,
      "count": 2392,
      "min": [
        0.00450577586889267,
        0.0080227330327034
      ],
      "max": [
        0.9968052506446838,
        0.996916651725769
      ],
      "type": "VEC2"
    },
    {
      "bufferView": 3,
      "byteOffset": 0,
      "componentType": 5125,
      "normalized": false,
      "count": 11970,
      "min": [
        0
      ],
      "max": [
        2391
      ],
      "type": "SCALAR"
    }
  ],
  "scene": 0,
  "scenes": [
    {
      "nodes": [
        4
      ],
      "name": "Shirt"
    }
  ],
  "nodes": [
    {
      "name": "Shirt",
      "matrix": [
        300,
        0,
        0,
        0,
        0,
        300,
        0,
        0,
        0,
        0,
        300,
        0,
        0,
        0,
        0,
        1
      ],
      "extensions": {
        "KHR_node_visibility": {
          "visible": true
        }
      },
      "mesh": 0
    },
    {
      "name": "pasted__polySurface1",
      "children": [
        0
      ],
      "extensions": {
        "KHR_node_visibility": {
          "visible": true
        }
      }
    },
    {
      "name": "RootNode",
      "children": [
        1
      ],
      "extensions": {
        "KHR_node_visibility": {
          "visible": true
        }
      }
    },
    {
      "name": "9e7a137a6a7d4acda120a9576620c3a0.fbx",
      "children": [
        2
      ],
      "matrix": [
        0.009999999776482582,
        0,
        0,
        0,
        0,
        3.42285422227917e-10,
        0.009999999776482582,
        0,
        0,
        -0.009999999776482582,
        3.42285422227917e-10,
        0,
        0,
        0,
        0,
        1
      ],
      "extensions": {
        "KHR_node_visibility": {
          "visible": true
        }
      }
    },
    {
      "name": "Shirt",
      "children": [
        3
      ],
      "matrix": [
        1,
        0,
        0,
        0,
        0,
        3.4228534673275135e-8,
        -0.9999997615814209,
        0,
        0,
        0.9999997615814209,
        3.4228534673275135e-8,
        0,
        0,
        0,
        0,
        1
      ],
      "extensions": {
        "KHR_node_visibility": {
          "visible": true
        }
      }
    }
  ],
  "meshes": [
    {
      "primitives": [
        {
          "material": 0,
          "mode": 4,
          "attributes": {
            "NORMAL": 0,
            "POSITION": 1,
            "TANGENT": 2,
            "TEXCOORD_0": 3
          },
          "indices": 4
        }
      ]
    }
  ],
  "materials": [
    {
      "name": "Shirt",
      "pbrMetallicRoughness": {
        "baseColorFactor": [
          1,
          1,
          1,
          1
        ],
        "metallicFactor": 0,
        "roughnessFactor": 1
      },
      "emissiveFactor": [
        0,
        0,
        0
      ],
      "alphaMode": "OPAQUE",
      "doubleSided": true,
      "extensions": {
        "KHR_materials_specular": {
          "specularFactor": 1,
          "specularColorFactor": [
            1,
            1,
            1
          ]
        },
        "KHR_materials_ior": {
          "ior": 1000
        }
      }
    }
  ],
  "extensionsUsed": [
    "KHR_node_visibility",
    "KHR_materials_specular",
    "KHR_materials_ior"
  ]
}