{
  "asset": {
    "extras": {
      "author": "danush55 (https://sketchfab.com/danush55)",
      "license": "CC-BY-4.0 (http://creativecommons.org/licenses/by/4.0/)",
      "source": "https://sketchfab.com/3d-models/leather-vest-05caa242ef1748d9b7421ad6c7d19c6f",
      "title": "Leather Vest"
    },
    "generator": "Sketchfab-16.65.0",
    "version": "2.0"
  },
  "buffers": [
    {
      "uri": "Vest.bin",
      "byteLength": 276856
    }
  ],
  "bufferViews": [
    {
      "buffer": 0,
      "byteOffset": 0,
      "byteLength": 114504,
      "byteStride": 24,
      "target": 34962
    },
    {
      "buffer": 0,
      "byteOffset": 114504,
      "byteLength": 76336,
      "byteStride": 16,
      "target": 34962
    },
    {
      "buffer": 0,
      "byteOffset": 190840,
      "byteLength": 86016,
      "target": 34963
    }
  ],
  "accessors": [
    {
      "bufferView": 0,
      "byteOffset": 0,
      "componentType": 5126,
      "normalized": false,
      "count": 4771,
      "min": [
        -0.9998907446861267,
        -0.9999235272407532,
        -0.999330461025238
      ],
      "max": [
        0.999928891658783,
        0.9999774098396301,
        0.9952452778816223
      ],
      "type": "VEC3"
    },
    {
      "bufferView": 0,
      "byteOffset": 12,
      "componentType": 5126,
      "normalized": false,
      "count": 4771,
      "min": [
        -0.23091605305671692,
        -0.17019306123256683,
        0.8298563361167908
      ],
      "max": [
        0.2309885323047638,
        0.1833350658416748,
        1.6229641437530518
      ],
      "type": "VEC3"
    },
    {
      "bufferView": 1,
      "byteOffset": 0,
      "componentType": 5126,
      "normalized": false,
      "count": 4771,
      "min": [
        0.005799999926239252,
        0.002400000113993883
      ],
      "max": [
        0.9923999905586243,
        0.8482999801635742
      ],
      "type": "VEC2"
    },
    {
      "bufferView": 1,
      "byteOffset": 8,
      "componentType": 5126,
      "normalized": false,
      "count": 4771,
      "min": [
        0.01625959202647209,
        0.016259538009762764
      ],
      "max": [
        0.980241060256958,
        0.9837403297424316
      ],
      "type": "VEC2"
    },
    {
      "bufferView": 2,
      "byteOffset": 0,
      "componentType": 5125,
      "normalized": false,
      "count": 21504,
      "min": [
        0
      ],
      "max": [
        4770
      ],
      "type": "SCALAR"
    }
  ],
  "scene": 0,
  "scenes": [
    {
      "nodes": [
        4
      ],
      "name": "Vest"
    }
  ],
  "nodes": [
    {
      "name": "NEW VEST_Leather Base 01 Holes_0",
      "matrix": [
        3,
        0,
        0,
        0,
        0,
        3,
        0,
        0,
        0,
        0,
        3,
        0,
        0,
        0,
        0,
        1
      ],
      "extensions": {
        "KHR_node_visibility": {
          "visible": true
        }
      },
      "mesh": 0
    },
    {
      "name": "NEW VEST",
      "children": [
        0
      ],
      "matrix": [
        100,
        0,
        0,
        0,
        0,
        -0.000013435885193757713,
        -100,
        0,
        0,
        100,
        -0.000013435885193757713,
        0,
        0,
        0,
        0,
        1
      ],
      "extensions": {
        "KHR_node_visibility": {
          "visible": true
        }
      }
    },
    {
      "name": "RootNode",
      "children": [
        1
      ],
      "extensions": {
        "KHR_node_visibility": {
          "visible": true
        }
      }
    },
    {
      "name": "cd679be492b74270bde4020df023c295.fbx",
      "children": [
        2
      ],
      "matrix": [
        0.009999999776482582,
        0,
        0,
        0,
        0,
        3.42285422227917e-10,
        0.009999999776482582,
        0,
        0,
        -0.009999999776482582,
        3.42285422227917e-10,
        0,
        0,
        0,
        0,
        1
      ],
      "extensions": {
        "KHR_node_visibility": {
          "visible": true
        }
      }
    },
    {
      "name": "Vest",
      "children": [
        3
      ],
      "matrix": [
        1,
        0,
        0,
        0,
        0,
        3.422854177870249e-8,
        -0.9999999403953552,
        0,
        0,
        0.9999999403953552,
        3.422854177870249e-8,
        0,
        0,
        0,
        0,
        1
      ],
      "extensions": {
        "KHR_node_visibility": {
          "visible": true
        }
      }
    }
  ],
  "meshes": [
    {
      "primitives": [
        {
          "material": 0,
          "mode": 4,
          "attributes": {
            "NORMAL": 0,
            "POSITION": 1,
            "TEXCOORD_0": 2,
            "TEXCOORD_1": 3
          },
          "indices": 4
        }
      ]
    }
  ],
  "materials": [
    {
      "name": "Leather_Base_01_Holes",
      "pbrMetallicRoughness": {
        "baseColorFactor": [
          0.8,
          0.8,
          0.8,
          1
        ],
        "metallicFactor": 0,
        "roughnessFactor": 0.8211145618000169
      },
      "emissiveFactor": [
        0,
        0,
        0
      ],
      "alphaMode": "OPAQUE",
      "doubleSided": true,
      "extensions": {
        "KHR_materials_specular": {
          "specularFactor": 1,
          "specularColorFactor": [
            1,
            1,
            1
          ]
        }
      }
    }
  ],
  "extensionsUsed": [
    "KHR_node_visibility",
    "KHR_materials_specular"
  ]
}